<svg id="visual" viewBox="0 0 540 960" width="540" height="960" xmlns="http://www.w3.org/2000/svg" xmlns:xlink="http://www.w3.org/1999/xlink" version="1.1"><g stroke-width="1" stroke-linejoin="bevel"><path d="M242 450.7L211 555.3L311 456.7Z" fill="#1c1d20" stroke="#1c1d20"></path><path d="M211 555.3L343 551.3L311 456.7Z" fill="#292b2f" stroke="#292b2f"></path><path d="M211 555.3L309 620L343 551.3Z" fill="#131415" stroke="#131415"></path><path d="M123 606L182 627L211 555.3Z" fill="#121314" stroke="#121314"></path><path d="M211 555.3L182 627L309 620Z" fill="#121314" stroke="#121314"></path><path d="M435 634L427 553.3L343 551.3Z" fill="#37393e" stroke="#37393e"></path><path d="M343 551.3L427 553.3L311 456.7Z" fill="#151618" stroke="#151618"></path><path d="M76 537.3L123 606L211 555.3Z" fill="#161719" stroke="#161719"></path><path d="M242 450.7L109 454.7L211 555.3Z" fill="#121314" stroke="#121314"></path><path d="M109 454.7L76 537.3L211 555.3Z" fill="#37393e" stroke="#37393e"></path><path d="M309 620L435 634L343 551.3Z" fill="#131415" stroke="#131415"></path><path d="M325 733.7L435 634L309 620Z" fill="#161719" stroke="#161719"></path><path d="M448 347L303 310L311 456.7Z" fill="#161719" stroke="#161719"></path><path d="M311 456.7L303 310L242 450.7Z" fill="#141516" stroke="#141516"></path><path d="M242 450.7L140 302L109 454.7Z" fill="#151618" stroke="#151618"></path><path d="M540 551.3L468 432.7L427 553.3Z" fill="#303236" stroke="#303236"></path><path d="M427 553.3L468 432.7L311 456.7Z" fill="#232427" stroke="#232427"></path><path d="M236 763.7L309 620L182 627Z" fill="#303236" stroke="#303236"></path><path d="M236 763.7L325 733.7L309 620Z" fill="#292b2f" stroke="#292b2f"></path><path d="M303 310L247 282L242 450.7Z" fill="#131415" stroke="#131415"></path><path d="M468 432.7L448 347L311 456.7Z" fill="#292b2f" stroke="#292b2f"></path><path d="M303 310L324 201.3L247 282Z" fill="#232427" stroke="#232427"></path><path d="M127 763.7L236 763.7L182 627Z" fill="#161719" stroke="#161719"></path><path d="M247 282L140 302L242 450.7Z" fill="#37393e" stroke="#37393e"></path><path d="M0 462.7L0 517.3L76 537.3Z" fill="#232427" stroke="#232427"></path><path d="M76 537.3L0 603L123 606Z" fill="#292b2f" stroke="#292b2f"></path><path d="M123 606L127 763.7L182 627Z" fill="#121314" stroke="#121314"></path><path d="M0 462.7L76 537.3L109 454.7Z" fill="#121314" stroke="#121314"></path><path d="M540 636L540 551.3L435 634Z" fill="#292b2f" stroke="#292b2f"></path><path d="M435 634L540 551.3L427 553.3Z" fill="#141516" stroke="#141516"></path><path d="M468 432.7L540 434.7L448 347Z" fill="#141517" stroke="#141517"></path><path d="M333 861.3L411 749.7L325 733.7Z" fill="#151618" stroke="#151618"></path><path d="M325 733.7L411 749.7L435 634Z" fill="#37393e" stroke="#37393e"></path><path d="M0 319L0 462.7L109 454.7Z" fill="#151618" stroke="#151618"></path><path d="M540 551.3L540 434.7L468 432.7Z" fill="#37393e" stroke="#37393e"></path><path d="M0 517.3L0 603L76 537.3Z" fill="#303236" stroke="#303236"></path><path d="M0 763.7L127 763.7L123 606Z" fill="#121314" stroke="#121314"></path><path d="M411 749.7L540 636L435 634Z" fill="#121314" stroke="#121314"></path><path d="M395 174.3L324 201.3L448 347Z" fill="#141516" stroke="#141516"></path><path d="M448 347L324 201.3L303 310Z" fill="#232427" stroke="#232427"></path><path d="M208 175.3L102 242.3L140 302Z" fill="#151618" stroke="#151618"></path><path d="M208 175.3L140 302L247 282Z" fill="#131415" stroke="#131415"></path><path d="M140 302L0 319L109 454.7Z" fill="#232427" stroke="#232427"></path><path d="M102 242.3L0 319L140 302Z" fill="#121314" stroke="#121314"></path><path d="M324 201.3L208 175.3L247 282Z" fill="#121314" stroke="#121314"></path><path d="M236 763.7L333 861.3L325 733.7Z" fill="#141516" stroke="#141516"></path><path d="M411 749.7L540 774.7L540 636Z" fill="#121314" stroke="#121314"></path><path d="M248 888.3L333 861.3L236 763.7Z" fill="#292b2f" stroke="#292b2f"></path><path d="M540 434.7L540 288L448 347Z" fill="#1c1d20" stroke="#1c1d20"></path><path d="M540 288L395 174.3L448 347Z" fill="#131415" stroke="#131415"></path><path d="M309 101.7L179 128.7L208 175.3Z" fill="#151618" stroke="#151618"></path><path d="M0 603L0 763.7L123 606Z" fill="#161719" stroke="#161719"></path><path d="M127 763.7L248 888.3L236 763.7Z" fill="#161719" stroke="#161719"></path><path d="M70 890.3L248 888.3L127 763.7Z" fill="#131415" stroke="#131415"></path><path d="M462 839.3L540 774.7L411 749.7Z" fill="#303236" stroke="#303236"></path><path d="M415 960L462 839.3L333 861.3Z" fill="#232427" stroke="#232427"></path><path d="M333 861.3L462 839.3L411 749.7Z" fill="#141516" stroke="#141516"></path><path d="M102 242.3L0 247.3L0 319Z" fill="#121314" stroke="#121314"></path><path d="M0 126.7L0 247.3L102 242.3Z" fill="#141516" stroke="#141516"></path><path d="M309 101.7L208 175.3L324 201.3Z" fill="#1c1d20" stroke="#1c1d20"></path><path d="M208 175.3L179 128.7L102 242.3Z" fill="#141516" stroke="#141516"></path><path d="M462 137.7L309 101.7L395 174.3Z" fill="#141516" stroke="#141516"></path><path d="M395 174.3L309 101.7L324 201.3Z" fill="#303236" stroke="#303236"></path><path d="M540 178.3L462 137.7L395 174.3Z" fill="#37393e" stroke="#37393e"></path><path d="M0 763.7L70 890.3L127 763.7Z" fill="#121314" stroke="#121314"></path><path d="M540 288L540 178.3L395 174.3Z" fill="#131415" stroke="#131415"></path><path d="M0 763.7L0 860.3L70 890.3Z" fill="#292b2f" stroke="#292b2f"></path><path d="M179 0L89 114.7L179 128.7Z" fill="#161719" stroke="#161719"></path><path d="M179 128.7L89 114.7L102 242.3Z" fill="#131415" stroke="#131415"></path><path d="M139 960L255 960L248 888.3Z" fill="#121314" stroke="#121314"></path><path d="M248 888.3L333 960L333 861.3Z" fill="#232427" stroke="#232427"></path><path d="M255 960L333 960L248 888.3Z" fill="#121314" stroke="#121314"></path><path d="M462 839.3L540 877.3L540 774.7Z" fill="#141516" stroke="#141516"></path><path d="M415 960L540 877.3L462 839.3Z" fill="#303236" stroke="#303236"></path><path d="M70 890.3L139 960L248 888.3Z" fill="#232427" stroke="#232427"></path><path d="M0 960L139 960L70 890.3Z" fill="#121314" stroke="#121314"></path><path d="M333 960L415 960L333 861.3Z" fill="#131415" stroke="#131415"></path><path d="M89 114.7L0 126.7L102 242.3Z" fill="#151618" stroke="#151618"></path><path d="M463 0L310 0L309 101.7Z" fill="#161719" stroke="#161719"></path><path d="M540 178.3L540 118.7L462 137.7Z" fill="#131415" stroke="#131415"></path><path d="M463 0L309 101.7L462 137.7Z" fill="#161719" stroke="#161719"></path><path d="M309 101.7L179 0L179 128.7Z" fill="#141517" stroke="#141517"></path><path d="M89 114.7L73 0L0 126.7Z" fill="#141517" stroke="#141517"></path><path d="M415 960L540 960L540 877.3Z" fill="#161719" stroke="#161719"></path><path d="M0 860.3L0 960L70 890.3Z" fill="#151618" stroke="#151618"></path><path d="M310 0L179 0L309 101.7Z" fill="#292b2f" stroke="#292b2f"></path><path d="M540 118.7L463 0L462 137.7Z" fill="#232427" stroke="#232427"></path><path d="M179 0L73 0L89 114.7Z" fill="#37393e" stroke="#37393e"></path><path d="M540 118.7L540 0L463 0Z" fill="#1c1d20" stroke="#1c1d20"></path><path d="M73 0L0 0L0 126.7Z" fill="#131415" stroke="#131415"></path></g></svg>